<svg width="15" height="15" viewBox="0 0 15 15" fill="none" xmlns="http://www.w3.org/2000/svg">
<path d="M9.375 6.25C9.74584 6.25 10.1084 6.14003 10.4167 5.93401C10.725 5.72798 10.9654 5.43514 11.1073 5.09253C11.2492 4.74992 11.2863 4.37292 11.214 4.00921C11.1416 3.64549 10.963 3.3114 10.7008 3.04917C10.4386 2.78695 10.1045 2.60837 9.74079 2.53603C9.37708 2.46368 9.00008 2.50081 8.65747 2.64273C8.31486 2.78464 8.02202 3.02496 7.81599 3.33331C7.60997 3.64165 7.5 4.00416 7.5 4.375C7.5 4.87228 7.69754 5.34919 8.04917 5.70083C8.40081 6.05246 8.87772 6.25 9.375 6.25ZM9.375 3.75C9.49861 3.75 9.61945 3.78666 9.72223 3.85533C9.82501 3.92401 9.90512 4.02162 9.95242 4.13582C9.99973 4.25003 10.0121 4.37569 9.98799 4.49693C9.96388 4.61817 9.90435 4.72953 9.81694 4.81694C9.72953 4.90435 9.61817 4.96388 9.49693 4.98799C9.37569 5.01211 9.25003 4.99973 9.13582 4.95242C9.02162 4.90512 8.92401 4.82501 8.85533 4.72223C8.78666 4.61945 8.75 4.49861 8.75 4.375C8.75 4.20924 8.81585 4.05027 8.93306 3.93306C9.05027 3.81585 9.20924 3.75 9.375 3.75Z" fill="black"/>
<path d="M13.75 0H1.25C0.918479 0 0.600537 0.131696 0.366116 0.366116C0.131696 0.600537 0 0.918479 0 1.25V13.75C0 14.0815 0.131696 14.3995 0.366116 14.6339C0.600537 14.8683 0.918479 15 1.25 15H13.75C14.0815 15 14.3995 14.8683 14.6339 14.6339C14.8683 14.3995 15 14.0815 15 13.75V1.25C15 0.918479 14.8683 0.600537 14.6339 0.366116C14.3995 0.131696 14.0815 0 13.75 0ZM13.75 13.75H1.25V10L4.375 6.875L7.86875 10.3688C8.10295 10.6016 8.41977 10.7322 8.75 10.7322C9.08023 10.7322 9.39705 10.6016 9.63125 10.3688L10.625 9.375L13.75 12.5V13.75ZM13.75 10.7313L11.5062 8.4875C11.272 8.25469 10.9552 8.12401 10.625 8.12401C10.2948 8.12401 9.97795 8.25469 9.74375 8.4875L8.75 9.48125L5.25625 5.9875C5.02205 5.75469 4.70523 5.62401 4.375 5.62401C4.04477 5.62401 3.72795 5.75469 3.49375 5.9875L1.25 8.23125V1.25H13.75V10.7313Z" fill="black"/>
</svg>
